<?xml version="1.0" encoding="UTF-8" standalone="no"?>
<!-- Created with Inkscape (http://www.inkscape.org/) -->

<svg
   xmlns:dc="http://purl.org/dc/elements/1.1/"
   xmlns:cc="http://creativecommons.org/ns#"
   xmlns:rdf="http://www.w3.org/1999/02/22-rdf-syntax-ns#"
   xmlns:svg="http://www.w3.org/2000/svg"
   xmlns="http://www.w3.org/2000/svg"
   xmlns:sodipodi="http://sodipodi.sourceforge.net/DTD/sodipodi-0.dtd"
   xmlns:inkscape="http://www.inkscape.org/namespaces/inkscape"
   version="1.1"
   id="svg2"
   xml:space="preserve"
   width="356"
   height="235.67999"
   viewBox="0 0 356 235.67999"
   sodipodi:docname="ArquiteturaSimplificadaZynq.svg"
   inkscape:version="0.92.1 r15371"><metadata
     id="metadata8"><rdf:RDF><cc:Work
         rdf:about=""><dc:format>image/svg+xml</dc:format><dc:type
           rdf:resource="http://purl.org/dc/dcmitype/StillImage" /><dc:title></dc:title></cc:Work></rdf:RDF></metadata><defs
     id="defs6" /><sodipodi:namedview
     pagecolor="#ffffff"
     bordercolor="#666666"
     borderopacity="1"
     objecttolerance="10"
     gridtolerance="10"
     guidetolerance="10"
     inkscape:pageopacity="0"
     inkscape:pageshadow="2"
     inkscape:window-width="1280"
     inkscape:window-height="1005"
     id="namedview4"
     showgrid="false"
     fit-margin-top="0"
     fit-margin-left="0"
     fit-margin-right="0"
     fit-margin-bottom="0"
     inkscape:zoom="0.81802549"
     inkscape:cx="42.240784"
     inkscape:cy="33.817441"
     inkscape:window-x="-4"
     inkscape:window-y="-4"
     inkscape:window-maximized="1"
     inkscape:current-layer="g10" /><g
     id="g10"
     inkscape:groupmode="layer"
     inkscape:label="The_Zynq_Book_ebook_3"
     transform="matrix(1.3333333,0,0,-1.3333333,-549.43999,510.23999)"><g
       id="g8100"
       transform="rotate(-90,545.58,294.3)"><path
         inkscape:connector-curvature="0"
         id="path3198"
         style="fill:#ffffff;fill-opacity:1;fill-rule:nonzero;stroke:none"
         d="m 457.2,427.8 h 176.76 v -267 H 457.2 Z" /><path
         inkscape:connector-curvature="0"
         id="path3200"
         style="fill:#231f20;fill-opacity:1;fill-rule:nonzero;stroke:none"
         d="m 539.64,258.96 c 8.76,0 15.84,-6.36 15.84,-14.28 v -64.92 c 0,-7.92 -7.08,-14.28 -15.84,-14.28 h -61.32 c -8.64,0 -15.72,6.36 -15.72,14.28 v 64.92 c 0,7.92 7.08,14.28 15.72,14.28 z" /><g
         transform="matrix(0.12,0,0,-0.12,0,612)"
         id="g3202"><path
           inkscape:connector-curvature="0"
           id="path3204"
           style="fill:none;stroke:#231f20;stroke-width:46;stroke-linecap:butt;stroke-linejoin:miter;stroke-miterlimit:10;stroke-dasharray:none;stroke-opacity:1"
           d="m 4497,2942 c 73,0 132,53 132,119 v 541 c 0,66 -59,119 -132,119 h -511 c -72,0 -131,-53 -131,-119 v -541 c 0,-66 59,-119 131,-119 z" /></g><path
         inkscape:connector-curvature="0"
         id="path3206"
         style="fill:#231f20;fill-opacity:1;fill-rule:nonzero;stroke:none"
         d="m 601.32,351 c 15.72,0 28.44,-12.72 28.44,-28.44 V 193.8 c 0,-15.6 -12.72,-28.32 -28.44,-28.32 H 491.04 c -15.72,0 -28.44,12.72 -28.44,28.32 v 128.76 c 0,15.72 12.72,28.44 28.44,28.44 z" /><g
         transform="matrix(0.12,0,0,-0.12,0,612)"
         id="g3208"><path
           inkscape:connector-curvature="0"
           id="path3210"
           style="fill:none;stroke:#231f20;stroke-width:46;stroke-linecap:butt;stroke-linejoin:miter;stroke-miterlimit:10;stroke-dasharray:none;stroke-opacity:1"
           d="m 5011,2175 c 131,0 237,106 237,237 v 1073 c 0,130 -106,236 -237,236 h -919 c -131,0 -237,-106 -237,-236 V 2412 c 0,-131 106,-237 237,-237 z" /></g><path
         inkscape:connector-curvature="0"
         id="path3212"
         style="fill:#fff200;fill-opacity:1;fill-rule:nonzero;stroke:none"
         d="m 601.32,351 c 15.72,0 28.44,-12.72 28.44,-28.44 V 193.8 c 0,-15.6 -12.72,-28.32 -28.44,-28.32 H 491.04 c -15.72,0 -28.44,12.72 -28.44,28.32 v 128.76 c 0,15.72 12.72,28.44 28.44,28.44 z" /><g
         transform="matrix(0.12,0,0,-0.12,0,612)"
         id="g3214"><path
           inkscape:connector-curvature="0"
           id="path3216"
           style="fill:none;stroke:#231f20;stroke-width:9;stroke-linecap:butt;stroke-linejoin:miter;stroke-miterlimit:10;stroke-dasharray:none;stroke-opacity:1"
           d="m 5011,2175 c 131,0 237,106 237,237 v 1073 c 0,130 -106,236 -237,236 h -919 c -131,0 -237,-106 -237,-236 V 2412 c 0,-131 106,-237 237,-237 z" /></g><path
         inkscape:connector-curvature="0"
         id="path3218"
         style="fill:#25aae2;fill-opacity:1;fill-rule:nonzero;stroke:none"
         d="m 539.64,258.96 c 8.76,0 15.84,-6.36 15.84,-14.28 v -64.92 c 0,-7.92 -7.08,-14.28 -15.84,-14.28 h -61.32 c -8.64,0 -15.72,6.36 -15.72,14.28 v 64.92 c 0,7.92 7.08,14.28 15.72,14.28 z" /><g
         transform="matrix(0.12,0,0,-0.12,0,612)"
         id="g3220"><path
           inkscape:connector-curvature="0"
           id="path3222"
           style="fill:none;stroke:#231f20;stroke-width:9;stroke-linecap:butt;stroke-linejoin:miter;stroke-miterlimit:10;stroke-dasharray:none;stroke-opacity:1"
           d="m 4497,2942 c 73,0 132,53 132,119 v 541 c 0,66 -59,119 -132,119 h -511 c -72,0 -131,-53 -131,-119 v -541 c 0,-66 59,-119 131,-119 z" /></g><path
         inkscape:connector-curvature="0"
         id="path3224"
         style="fill:#231f20;fill-opacity:1;fill-rule:nonzero;stroke:none"
         d="m 484.68,175.68 v 1.2 h -3.72 v 2.28 c 0,1.08 -0.24,2.04 -0.72,2.64 -0.48,0.48 -1.2,0.84 -2.16,0.84 -0.48,0 -0.96,-0.12 -1.32,-0.36 -0.36,-0.12 -0.6,-0.36 -0.84,-0.72 -0.12,-0.36 -0.36,-0.72 -0.36,-1.2 -0.12,-0.36 -0.12,-0.84 -0.12,-1.32 v -3.36 z m -8.16,1.2 v 2.28 c 0,0.24 0,0.6 0.12,0.84 0,0.24 0,0.48 0.12,0.72 0.12,0.24 0.36,0.36 0.6,0.48 0.12,0.12 0.48,0.12 0.72,0.12 0.36,0 0.6,0 0.84,-0.12 0.12,0 0.36,-0.12 0.48,-0.36 0.12,-0.12 0.24,-0.36 0.36,-0.6 0,-0.36 0.12,-0.6 0.12,-1.08 v -2.28 z" /><path
         inkscape:connector-curvature="0"
         id="path3226"
         style="fill:#231f20;fill-opacity:1;fill-rule:nonzero;stroke:none"
         d="m 477.84,187.56 c 0,-0.24 0,-0.36 0,-0.6 0,-0.6 0.36,-1.2 1.08,-1.68 h -0.96 v -1.2 h 6.72 v 1.2 h -4.8 c -0.24,0.24 -0.48,0.48 -0.72,0.72 -0.12,0.24 -0.24,0.48 -0.24,0.84 0,0.24 0.12,0.48 0.12,0.72 z" /><path
         inkscape:connector-curvature="0"
         id="path3228"
         style="fill:#231f20;fill-opacity:1;fill-rule:nonzero;stroke:none"
         d="m 478.08,189.84 c 0.12,-0.48 0.36,-0.72 0.6,-1.08 0.36,-0.24 0.72,-0.48 1.08,-0.6 0.48,-0.12 0.96,-0.24 1.56,-0.24 0.48,0 1.08,0.12 1.44,0.24 0.48,0.12 0.84,0.36 1.08,0.6 0.36,0.36 0.6,0.6 0.72,1.08 0.12,0.36 0.24,0.72 0.24,1.2 0,0.48 -0.12,0.96 -0.24,1.32 -0.12,0.36 -0.36,0.72 -0.72,0.96 -0.24,0.24 -0.6,0.48 -1.08,0.6 -0.36,0.24 -0.96,0.24 -1.44,0.24 -0.6,0 -1.08,0 -1.44,-0.24 -0.48,-0.12 -0.84,-0.36 -1.2,-0.6 -0.24,-0.24 -0.48,-0.6 -0.6,-0.96 -0.24,-0.36 -0.24,-0.84 -0.24,-1.32 0,-0.48 0,-0.84 0.24,-1.2 z m 5.64,0.48 c -0.12,-0.24 -0.24,-0.48 -0.48,-0.6 -0.24,-0.24 -0.48,-0.36 -0.84,-0.48 -0.36,0 -0.72,-0.12 -1.08,-0.12 -0.48,0 -0.84,0.12 -1.2,0.12 -0.24,0.12 -0.48,0.24 -0.72,0.48 -0.24,0.12 -0.36,0.36 -0.48,0.6 -0.12,0.24 -0.24,0.48 -0.24,0.72 0,0.36 0.12,0.6 0.24,0.84 0.12,0.12 0.24,0.36 0.48,0.6 0.24,0.12 0.48,0.24 0.72,0.36 0.36,0.12 0.72,0.12 1.2,0.12 0.36,0 0.72,0 1.08,-0.12 0.36,-0.12 0.6,-0.24 0.84,-0.36 0.24,-0.24 0.36,-0.48 0.48,-0.6 0.12,-0.24 0.12,-0.48 0.12,-0.84 0,-0.24 0,-0.48 -0.12,-0.72 z" /><path
         inkscape:connector-curvature="0"
         id="path3230"
         style="fill:#231f20;fill-opacity:1;fill-rule:nonzero;stroke:none"
         d="m 484.68,199.2 c -0.12,0.36 -0.24,0.6 -0.48,0.84 -0.12,0.24 -0.36,0.48 -0.6,0.6 -0.24,0.12 -0.6,0.24 -0.96,0.24 v -1.2 c 0.24,0 0.36,0 0.48,-0.12 0.24,-0.12 0.36,-0.24 0.48,-0.36 0,-0.12 0.12,-0.24 0.12,-0.48 0.12,-0.12 0.12,-0.36 0.12,-0.48 0,-0.24 0,-0.6 -0.12,-0.84 -0.12,-0.24 -0.24,-0.36 -0.48,-0.6 -0.24,-0.12 -0.48,-0.24 -0.84,-0.36 -0.36,-0.12 -0.72,-0.12 -1.08,-0.12 -0.48,0 -0.84,0 -1.2,0.12 -0.24,0.12 -0.48,0.24 -0.72,0.36 -0.24,0.24 -0.36,0.36 -0.48,0.6 -0.12,0.24 -0.24,0.6 -0.24,0.84 0,0.12 0.12,0.36 0.12,0.6 0.12,0.12 0.12,0.24 0.24,0.36 0.12,0.24 0.24,0.24 0.36,0.36 0.24,0.12 0.36,0.12 0.6,0.12 v 1.2 c -0.36,0 -0.72,-0.12 -0.96,-0.24 -0.24,-0.12 -0.48,-0.36 -0.72,-0.6 -0.12,-0.24 -0.24,-0.48 -0.36,-0.84 -0.12,-0.24 -0.12,-0.6 -0.12,-0.96 0,-0.48 0,-0.96 0.24,-1.32 0.12,-0.36 0.36,-0.72 0.6,-0.96 0.36,-0.24 0.72,-0.48 1.08,-0.6 0.48,-0.24 0.96,-0.24 1.56,-0.24 0.48,0 1.08,0 1.44,0.24 0.48,0.12 0.84,0.36 1.08,0.6 0.36,0.24 0.6,0.6 0.72,0.96 0.12,0.36 0.24,0.84 0.24,1.32 0,0.36 0,0.72 -0.12,0.96 z" /><path
         inkscape:connector-curvature="0"
         id="path3232"
         style="fill:#231f20;fill-opacity:1;fill-rule:nonzero;stroke:none"
         d="m 484.68,205.92 c -0.12,0.24 -0.24,0.6 -0.48,0.84 -0.12,0.24 -0.36,0.48 -0.6,0.6 -0.36,0.12 -0.6,0.24 -0.96,0.36 v -1.32 c 0.24,0 0.36,0 0.48,-0.12 0.24,-0.12 0.36,-0.24 0.48,-0.36 0,-0.12 0.12,-0.36 0.12,-0.48 0.12,-0.24 0.12,-0.48 0.12,-0.6 0,-0.36 0,-0.6 -0.12,-0.84 -0.12,-0.24 -0.24,-0.36 -0.48,-0.6 -0.12,-0.12 -0.36,-0.36 -0.6,-0.36 -0.36,-0.12 -0.72,-0.24 -1.08,-0.24 v 5.04 h -0.24 c -0.6,0 -1.08,-0.12 -1.44,-0.24 -0.48,-0.12 -0.84,-0.36 -1.2,-0.6 -0.24,-0.36 -0.48,-0.6 -0.6,-1.08 -0.24,-0.36 -0.24,-0.72 -0.24,-1.2 0,-0.48 0,-0.96 0.24,-1.32 0.12,-0.36 0.36,-0.72 0.6,-0.96 0.36,-0.36 0.72,-0.48 1.2,-0.72 0.36,-0.12 0.84,-0.24 1.44,-0.24 0.48,0 1.08,0.12 1.44,0.36 0.48,0.12 0.84,0.36 1.08,0.6 0.36,0.24 0.6,0.6 0.72,1.08 0.12,0.36 0.24,0.84 0.24,1.32 0,0.36 0,0.72 -0.12,1.08 z m -4.08,-3.12 c -0.24,0 -0.6,0.12 -0.84,0.24 -0.24,0.12 -0.36,0.24 -0.6,0.36 -0.12,0.24 -0.24,0.36 -0.36,0.6 0,0.24 -0.12,0.48 -0.12,0.72 0,0.48 0.24,0.84 0.48,1.2 0.36,0.36 0.84,0.48 1.44,0.6 z" /><path
         inkscape:connector-curvature="0"
         id="path3234"
         style="fill:#231f20;fill-opacity:1;fill-rule:nonzero;stroke:none"
         d="m 484.68,212.64 c -0.12,0.36 -0.36,0.6 -0.48,0.84 -0.24,0.24 -0.48,0.36 -0.72,0.48 -0.24,0.12 -0.48,0.24 -0.84,0.24 -0.24,0 -0.6,0 -0.72,-0.12 -0.24,-0.12 -0.48,-0.24 -0.6,-0.48 -0.12,-0.24 -0.24,-0.48 -0.36,-0.72 -0.12,-0.36 -0.24,-0.6 -0.36,-1.08 0,-0.36 -0.12,-0.72 -0.24,-0.96 0,-0.24 -0.12,-0.48 -0.24,-0.6 0,-0.12 -0.12,-0.12 -0.12,-0.24 -0.12,0 -0.24,0 -0.36,0 -0.12,0 -0.24,0 -0.36,0.12 -0.12,0 -0.24,0.12 -0.36,0.24 0,0.12 -0.12,0.36 -0.12,0.48 0,0.12 -0.12,0.36 -0.12,0.6 0,0.84 0.36,1.32 0.96,1.32 v 1.2 c -1.2,0 -1.8,-0.96 -1.8,-2.64 0,-0.36 0,-0.72 0.12,-1.08 0.12,-0.24 0.24,-0.48 0.36,-0.72 0.24,-0.24 0.36,-0.36 0.6,-0.48 0.24,-0.12 0.48,-0.24 0.84,-0.24 0.24,0 0.6,0 0.72,0.12 0.24,0.12 0.36,0.24 0.48,0.48 0.24,0.12 0.36,0.36 0.36,0.72 0.12,0.24 0.24,0.6 0.36,0.96 0.12,0.36 0.12,0.72 0.24,0.96 0.12,0.24 0.12,0.48 0.24,0.6 0.12,0.12 0.12,0.24 0.24,0.24 0.12,0.12 0.24,0.12 0.36,0.12 0.24,0 0.36,0 0.48,-0.12 0.12,0 0.24,-0.12 0.36,-0.24 0,-0.12 0.12,-0.24 0.12,-0.48 0.12,-0.24 0.12,-0.36 0.12,-0.6 0,-1.2 -0.36,-1.68 -1.2,-1.68 v -1.2 c 1.44,0.12 2.16,1.08 2.16,2.88 0,0.36 -0.12,0.72 -0.12,1.08 z" /><path
         inkscape:connector-curvature="0"
         id="path3236"
         style="fill:#231f20;fill-opacity:1;fill-rule:nonzero;stroke:none"
         d="m 484.68,219.12 c -0.12,0.24 -0.36,0.6 -0.48,0.84 -0.24,0.24 -0.48,0.36 -0.72,0.48 -0.24,0.12 -0.48,0.24 -0.84,0.24 -0.24,0 -0.6,-0.12 -0.72,-0.24 -0.24,0 -0.48,-0.24 -0.6,-0.36 -0.12,-0.24 -0.24,-0.48 -0.36,-0.72 -0.12,-0.36 -0.24,-0.72 -0.36,-1.08 0,-0.48 -0.12,-0.72 -0.24,-0.96 0,-0.24 -0.12,-0.48 -0.24,-0.6 0,-0.12 -0.12,-0.24 -0.12,-0.24 -0.12,0 -0.24,0 -0.36,0 -0.12,0 -0.24,0 -0.36,0 -0.12,0.12 -0.24,0.24 -0.36,0.36 0,0.12 -0.12,0.24 -0.12,0.48 0,0.12 -0.12,0.36 -0.12,0.48 0,0.96 0.36,1.44 0.96,1.44 v 1.2 c -1.2,0 -1.8,-0.96 -1.8,-2.76 0,-0.36 0,-0.6 0.12,-0.96 0.12,-0.36 0.24,-0.6 0.36,-0.84 0.24,-0.12 0.36,-0.36 0.6,-0.48 0.24,-0.12 0.48,-0.12 0.84,-0.12 0.24,0 0.6,0 0.72,0.12 0.24,0.12 0.36,0.24 0.48,0.36 0.24,0.24 0.36,0.48 0.36,0.72 0.12,0.36 0.24,0.6 0.36,1.08 0.12,0.36 0.12,0.72 0.24,0.96 0.12,0.24 0.12,0.48 0.24,0.6 0.12,0.12 0.12,0.24 0.24,0.24 0.12,0.12 0.24,0.12 0.36,0.12 0.24,0 0.36,0 0.48,-0.12 0.12,-0.12 0.24,-0.12 0.36,-0.24 0,-0.12 0.12,-0.36 0.12,-0.48 0.12,-0.24 0.12,-0.48 0.12,-0.72 0,-1.08 -0.36,-1.68 -1.2,-1.68 v -1.2 c 1.44,0.12 2.16,1.08 2.16,2.88 0,0.48 -0.12,0.84 -0.12,1.2 z" /><path
         inkscape:connector-curvature="0"
         id="path3238"
         style="fill:#231f20;fill-opacity:1;fill-rule:nonzero;stroke:none"
         d="M 477.96,223.2 V 222 h 6.72 v 1.2 z m -2.52,0 V 222 h 1.2 v 1.2 z" /><path
         inkscape:connector-curvature="0"
         id="path3240"
         style="fill:#231f20;fill-opacity:1;fill-rule:nonzero;stroke:none"
         d="M 477.96,226.2 V 225 h 6.72 v 1.2 h -4.8 c -0.72,0.6 -1.08,1.2 -1.08,1.8 0,0.24 0,0.36 0.12,0.48 0,0.24 0.12,0.36 0.24,0.48 0.12,0.12 0.24,0.12 0.48,0.12 0.12,0.12 0.36,0.12 0.72,0.12 h 4.32 v 1.2 h -4.44 c -1.56,0 -2.4,-0.72 -2.4,-2.28 0,-0.36 0,-0.72 0.24,-1.08 0.12,-0.24 0.36,-0.6 0.72,-0.84 z" /><path
         inkscape:connector-curvature="0"
         id="path3242"
         style="fill:#231f20;fill-opacity:1;fill-rule:nonzero;stroke:none"
         d="m 477.96,237.6 v -1.2 h 0.48 c -0.24,-0.24 -0.36,-0.6 -0.48,-0.84 -0.12,-0.36 -0.12,-0.72 -0.12,-1.08 0,-0.36 0,-0.72 0.24,-1.08 0.12,-0.36 0.36,-0.6 0.6,-0.84 0.36,-0.36 0.72,-0.48 1.2,-0.6 0.48,-0.24 0.96,-0.24 1.44,-0.24 0.6,0 1.08,0 1.44,0.12 0.48,0.12 0.84,0.36 1.08,0.6 0.36,0.24 0.48,0.48 0.72,0.84 0.12,0.36 0.24,0.72 0.24,1.2 0,0.72 -0.36,1.32 -0.96,1.92 h 0.36 c 0.36,0 0.72,-0.12 1.08,-0.12 0.24,-0.12 0.48,-0.24 0.72,-0.36 0.12,-0.12 0.24,-0.36 0.36,-0.6 0,-0.12 0.12,-0.48 0.12,-0.72 0,-0.96 -0.48,-1.44 -1.2,-1.44 v -1.2 c 0.36,0 0.6,0 0.84,0.12 0.24,0.12 0.48,0.36 0.72,0.6 0.12,0.24 0.24,0.48 0.36,0.84 0.12,0.36 0.12,0.72 0.12,1.08 0,1.92 -1.08,3 -3.24,3 z m 5.64,-2.04 c 0.12,-0.36 0.24,-0.72 0.24,-0.96 0,-0.6 -0.24,-0.96 -0.6,-1.2 -0.48,-0.36 -1.08,-0.48 -1.92,-0.48 -0.84,0 -1.56,0.12 -1.92,0.48 -0.48,0.24 -0.72,0.72 -0.72,1.2 0,0.6 0.36,1.2 0.84,1.8 h 3.24 c 0.36,-0.36 0.6,-0.6 0.84,-0.84 z" /><path
         inkscape:connector-curvature="0"
         id="path3244"
         style="fill:#231f20;fill-opacity:1;fill-rule:nonzero;stroke:none"
         d="m 501.72,180.48 c -0.12,0.36 -0.24,0.84 -0.6,1.08 -0.24,0.36 -0.48,0.6 -0.84,0.72 -0.36,0.12 -0.72,0.24 -1.08,0.24 -0.36,0 -0.72,0 -0.96,-0.12 -0.24,-0.12 -0.48,-0.24 -0.6,-0.48 -0.24,-0.12 -0.36,-0.36 -0.48,-0.6 -0.24,-0.24 -0.36,-0.48 -0.36,-0.84 -0.12,-0.24 -0.24,-0.48 -0.24,-0.84 -0.12,-0.24 -0.12,-0.6 -0.24,-0.84 -0.12,-0.36 -0.12,-0.72 -0.24,-0.96 -0.12,-0.36 -0.12,-0.48 -0.24,-0.72 -0.12,-0.12 -0.24,-0.24 -0.36,-0.36 -0.24,0 -0.36,-0.12 -0.6,-0.12 -0.36,0 -0.72,0.24 -0.96,0.6 -0.24,0.36 -0.36,0.96 -0.36,1.56 0,1.44 0.48,2.16 1.68,2.28 v 1.2 c -0.48,0 -0.84,-0.12 -1.2,-0.24 -0.36,-0.24 -0.6,-0.48 -0.84,-0.72 -0.24,-0.36 -0.48,-0.72 -0.6,-1.08 -0.12,-0.48 -0.24,-0.96 -0.24,-1.44 0,-0.48 0.12,-0.96 0.24,-1.32 0.12,-0.48 0.36,-0.84 0.6,-1.08 0.12,-0.24 0.48,-0.48 0.72,-0.72 0.36,-0.12 0.72,-0.24 1.08,-0.24 0.36,0 0.6,0.12 0.84,0.24 0.36,0.12 0.48,0.24 0.72,0.48 0.24,0.24 0.36,0.6 0.6,0.96 0.12,0.36 0.24,0.84 0.36,1.32 0.12,0.6 0.24,0.96 0.36,1.32 0,0.36 0.12,0.72 0.36,0.96 0.12,0.24 0.24,0.36 0.36,0.48 0.24,0.12 0.48,0.12 0.72,0.12 0.24,0 0.48,0 0.6,-0.12 0.24,-0.12 0.36,-0.24 0.48,-0.48 0.12,-0.24 0.24,-0.48 0.36,-0.72 0,-0.24 0.12,-0.6 0.12,-0.96 0,-0.36 -0.12,-0.72 -0.12,-0.96 -0.12,-0.36 -0.24,-0.6 -0.36,-0.84 -0.24,-0.24 -0.36,-0.48 -0.72,-0.6 -0.24,-0.12 -0.48,-0.24 -0.84,-0.24 v -1.2 c 0.48,0 0.84,0.12 1.2,0.24 0.48,0.12 0.72,0.36 1.08,0.72 0.24,0.36 0.48,0.72 0.6,1.2 0.12,0.48 0.24,1.08 0.24,1.8 0,0.48 -0.12,0.96 -0.24,1.32 z" /><path
         inkscape:connector-curvature="0"
         id="path3246"
         style="fill:#231f20;fill-opacity:1;fill-rule:nonzero;stroke:none"
         d="m 503.4,184.2 c 0,-0.12 0,-0.24 -0.12,-0.36 h 1.08 c 0.12,0.12 0.12,0.24 0.12,0.36 0,0.12 0,0.36 0,0.48 0,0.24 0,0.6 -0.12,0.72 -0.24,0.24 -0.36,0.48 -0.6,0.6 -0.24,0.24 -0.48,0.36 -0.84,0.48 -0.36,0.12 -0.72,0.36 -1.08,0.48 l -6.72,2.52 v -1.32 l 5.16,-1.8 -5.16,-1.68 v -1.32 l 6.72,2.52 c 1.08,-0.36 1.56,-0.84 1.56,-1.44 0,-0.12 0,-0.24 0,-0.24 z" /><path
         inkscape:connector-curvature="0"
         id="path3248"
         style="fill:#231f20;fill-opacity:1;fill-rule:nonzero;stroke:none"
         d="m 501.84,194.04 c -0.12,0.36 -0.36,0.6 -0.48,0.84 -0.24,0.24 -0.48,0.36 -0.72,0.48 -0.24,0.12 -0.48,0.24 -0.84,0.24 -0.24,0 -0.6,-0.12 -0.72,-0.12 -0.24,-0.12 -0.48,-0.24 -0.6,-0.48 -0.12,-0.24 -0.24,-0.48 -0.36,-0.72 -0.12,-0.36 -0.24,-0.72 -0.36,-1.08 0,-0.48 -0.12,-0.72 -0.24,-0.96 0,-0.24 -0.12,-0.48 -0.24,-0.6 0,-0.12 -0.12,-0.24 -0.12,-0.24 -0.12,0 -0.24,0 -0.36,0 -0.12,0 -0.24,0 -0.36,0.12 -0.12,0 -0.24,0.12 -0.36,0.24 0,0.12 -0.12,0.24 -0.12,0.48 0,0.12 -0.12,0.36 -0.12,0.48 0,0.96 0.36,1.44 0.96,1.44 v 1.2 c -1.2,0 -1.8,-0.96 -1.8,-2.64 0,-0.36 0,-0.72 0.12,-1.08 0.12,-0.24 0.24,-0.6 0.36,-0.72 0.24,-0.24 0.36,-0.48 0.6,-0.6 0.24,-0.12 0.48,-0.12 0.84,-0.12 0.24,0 0.6,0 0.72,0.12 0.24,0.12 0.36,0.24 0.48,0.36 0.24,0.24 0.36,0.48 0.36,0.72 0.12,0.36 0.24,0.72 0.36,1.08 0.12,0.36 0.12,0.72 0.24,0.96 0.12,0.24 0.12,0.48 0.24,0.6 0.12,0.12 0.12,0.24 0.24,0.24 0.12,0.12 0.24,0.12 0.36,0.12 0.24,0 0.36,0 0.48,-0.12 0.12,0 0.24,-0.12 0.36,-0.24 0,-0.12 0.12,-0.36 0.12,-0.48 0.12,-0.24 0.12,-0.48 0.12,-0.72 0,-1.08 -0.36,-1.56 -1.2,-1.56 v -1.2 c 1.44,0 2.16,0.96 2.16,2.88 0,0.36 -0.12,0.72 -0.12,1.08 z" /><path
         inkscape:connector-curvature="0"
         id="path3250"
         style="fill:#231f20;fill-opacity:1;fill-rule:nonzero;stroke:none"
         d="m 500.88,199.56 c 0,-0.12 0,-0.24 0,-0.24 0.12,-0.12 0.12,-0.24 0.12,-0.36 0,-0.12 0,-0.24 -0.12,-0.24 0,-0.12 0,-0.12 -0.12,-0.24 -0.12,0 -0.12,-0.12 -0.36,-0.12 -0.12,0 -0.24,0 -0.48,0 h -3.84 v 1.08 h -0.96 v -1.08 h -1.68 v -1.2 h 1.68 v -0.84 h 0.96 v 0.84 h 3.72 c 0.36,0 0.72,0 0.96,0 0.24,0 0.48,0.12 0.6,0.24 0.24,0.12 0.36,0.24 0.36,0.48 0.12,0.24 0.12,0.48 0.12,0.84 0,0.12 0,0.24 0,0.48 0,0.12 0,0.24 0,0.36 z" /><path
         inkscape:connector-curvature="0"
         id="path3252"
         style="fill:#231f20;fill-opacity:1;fill-rule:nonzero;stroke:none"
         d="m 501.84,204.48 c -0.12,0.24 -0.24,0.6 -0.48,0.84 -0.12,0.24 -0.36,0.48 -0.6,0.6 -0.36,0.12 -0.6,0.24 -0.96,0.36 v -1.2 c 0.24,-0.12 0.36,-0.12 0.48,-0.24 0.24,-0.12 0.36,-0.24 0.48,-0.36 0,-0.12 0.12,-0.36 0.12,-0.48 0.12,-0.24 0.12,-0.48 0.12,-0.6 0,-0.36 0,-0.6 -0.12,-0.84 -0.12,-0.12 -0.24,-0.36 -0.48,-0.6 -0.12,-0.12 -0.36,-0.24 -0.6,-0.36 -0.36,-0.12 -0.72,-0.24 -1.08,-0.24 v 5.04 h -0.24 c -0.6,0 -1.08,-0.12 -1.44,-0.24 -0.48,-0.12 -0.84,-0.36 -1.2,-0.6 -0.24,-0.36 -0.48,-0.6 -0.6,-0.96 -0.24,-0.48 -0.24,-0.84 -0.24,-1.32 0,-0.48 0,-0.96 0.24,-1.32 0.12,-0.36 0.36,-0.72 0.6,-0.96 0.36,-0.24 0.72,-0.48 1.2,-0.72 0.36,-0.12 0.84,-0.12 1.44,-0.12 0.48,0 1.08,0 1.44,0.24 0.48,0.12 0.84,0.36 1.08,0.6 0.36,0.36 0.6,0.6 0.72,1.08 0.12,0.36 0.24,0.84 0.24,1.32 0,0.36 0,0.72 -0.12,1.08 z m -4.08,-3.12 c -0.24,0 -0.6,0.12 -0.84,0.24 -0.24,0.12 -0.36,0.24 -0.6,0.48 -0.12,0.12 -0.24,0.24 -0.36,0.48 0,0.24 -0.12,0.48 -0.12,0.72 0,0.48 0.24,0.84 0.48,1.2 0.36,0.36 0.84,0.6 1.44,0.6 z" /><path
         inkscape:connector-curvature="0"
         id="path3254"
         style="fill:#231f20;fill-opacity:1;fill-rule:nonzero;stroke:none"
         d="m 497.4,216.72 c -1.56,0 -2.4,-0.72 -2.4,-2.04 0,-0.12 0,-0.36 0,-0.48 0,-0.12 0.12,-0.24 0.12,-0.48 0.12,-0.12 0.24,-0.24 0.36,-0.48 0.24,-0.12 0.48,-0.36 0.72,-0.6 -0.84,-0.24 -1.2,-0.96 -1.2,-1.92 0,-0.6 0.36,-1.2 0.96,-1.8 h -0.84 v -1.2 h 6.72 v 1.2 h -4.8 c -0.72,0.48 -1.08,1.08 -1.08,1.68 0,0.12 0,0.36 0.12,0.48 0,0.12 0.12,0.24 0.24,0.24 0.12,0.12 0.24,0.24 0.48,0.24 0.12,0 0.36,0 0.72,0 h 4.32 v 1.2 h -4.8 c -0.72,0.6 -1.08,1.2 -1.08,1.8 0,0.12 0,0.24 0.12,0.48 0,0.12 0.12,0.12 0.24,0.24 0.12,0.12 0.24,0.12 0.48,0.24 0.12,0 0.36,0 0.72,0 h 4.32 v 1.2 z" /><path
         inkscape:connector-curvature="0"
         id="path3256"
         style="fill:#231f20;fill-opacity:1;fill-rule:nonzero;stroke:none"
         d="m 604.44,218.88 v 1.2 h -3.6 v 2.28 c 0,1.2 -0.24,2.04 -0.72,2.64 -0.48,0.6 -1.2,0.84 -2.16,0.84 -0.6,0 -0.96,-0.12 -1.32,-0.24 -0.36,-0.24 -0.6,-0.48 -0.84,-0.84 -0.24,-0.24 -0.36,-0.6 -0.48,-1.08 0,-0.48 -0.12,-0.84 -0.12,-1.32 v -3.48 z m -8.04,1.2 v 2.28 c 0,0.36 0,0.6 0,0.84 0,0.36 0.12,0.6 0.24,0.72 0.12,0.24 0.24,0.36 0.48,0.48 0.24,0.12 0.48,0.24 0.84,0.24 0.24,0 0.48,-0.12 0.72,-0.12 0.24,-0.12 0.48,-0.24 0.6,-0.36 0.12,-0.24 0.24,-0.48 0.36,-0.72 0,-0.24 0,-0.6 0,-0.96 v -2.4 z" /><path
         inkscape:connector-curvature="0"
         id="path3258"
         style="fill:#231f20;fill-opacity:1;fill-rule:nonzero;stroke:none"
         d="m 597.72,230.76 c -0.12,-0.12 -0.12,-0.36 -0.12,-0.48 0,-0.72 0.36,-1.32 1.08,-1.8 h -0.84 v -1.2 h 6.6 v 1.2 h -4.68 c -0.36,0.24 -0.6,0.48 -0.72,0.72 -0.12,0.24 -0.24,0.6 -0.24,0.84 0,0.36 0,0.6 0.12,0.72 z" /><path
         inkscape:connector-curvature="0"
         id="path3260"
         style="fill:#231f20;fill-opacity:1;fill-rule:nonzero;stroke:none"
         d="m 597.84,233.04 c 0.24,-0.36 0.48,-0.72 0.72,-0.96 0.24,-0.36 0.72,-0.48 1.08,-0.72 0.48,-0.12 0.96,-0.24 1.56,-0.24 0.48,0 0.96,0.12 1.44,0.24 0.36,0.24 0.84,0.36 1.08,0.72 0.24,0.24 0.48,0.6 0.72,0.96 0.12,0.36 0.24,0.84 0.24,1.32 0,0.48 -0.12,0.84 -0.24,1.2 -0.24,0.48 -0.48,0.72 -0.72,1.08 -0.36,0.24 -0.72,0.48 -1.08,0.6 -0.48,0.12 -0.96,0.24 -1.44,0.24 -0.6,0 -1.08,-0.12 -1.56,-0.24 -0.36,-0.12 -0.72,-0.36 -1.08,-0.6 -0.24,-0.36 -0.48,-0.6 -0.72,-1.08 -0.12,-0.36 -0.24,-0.72 -0.24,-1.2 0,-0.48 0.12,-0.96 0.24,-1.32 z m 5.76,0.48 c -0.12,-0.24 -0.36,-0.36 -0.6,-0.6 -0.12,-0.12 -0.48,-0.24 -0.72,-0.36 -0.36,-0.12 -0.72,-0.12 -1.08,-0.12 -0.48,0 -0.84,0 -1.2,0.12 -0.36,0.12 -0.6,0.24 -0.84,0.36 -0.12,0.24 -0.36,0.36 -0.48,0.6 0,0.24 -0.12,0.48 -0.12,0.84 0,0.24 0.12,0.48 0.12,0.72 0.12,0.24 0.36,0.48 0.48,0.6 0.24,0.12 0.48,0.36 0.84,0.36 0.36,0.12 0.72,0.12 1.2,0.12 0.36,0 0.72,0 1.08,-0.12 0.24,0 0.6,-0.24 0.72,-0.36 0.24,-0.12 0.48,-0.36 0.6,-0.6 0,-0.24 0.12,-0.48 0.12,-0.72 0,-0.36 -0.12,-0.6 -0.12,-0.84 z" /><path
         inkscape:connector-curvature="0"
         id="path3262"
         style="fill:#231f20;fill-opacity:1;fill-rule:nonzero;stroke:none"
         d="M 597.84,244.2 V 243 h 0.48 c -0.24,-0.24 -0.36,-0.48 -0.48,-0.84 -0.12,-0.24 -0.24,-0.6 -0.24,-0.96 0,-0.48 0.12,-0.84 0.24,-1.2 0.24,-0.24 0.48,-0.6 0.72,-0.84 0.36,-0.24 0.72,-0.48 1.2,-0.6 0.36,-0.12 0.84,-0.24 1.44,-0.24 0.48,0 0.96,0.12 1.44,0.24 0.36,0.12 0.72,0.24 1.08,0.48 0.24,0.24 0.48,0.48 0.72,0.84 0.12,0.36 0.24,0.72 0.24,1.2 0,0.72 -0.36,1.44 -0.96,1.92 h 0.24 c 0.48,0 0.84,0 1.08,-0.12 0.36,-0.12 0.6,-0.12 0.72,-0.36 0.24,-0.12 0.36,-0.36 0.36,-0.48 0.12,-0.24 0.12,-0.48 0.12,-0.84 0,-0.96 -0.36,-1.44 -1.08,-1.44 v -1.2 c 0.24,0 0.6,0.12 0.84,0.24 0.24,0.12 0.48,0.24 0.6,0.48 0.24,0.24 0.36,0.48 0.48,0.84 0,0.36 0.12,0.72 0.12,1.2 0,1.92 -1.08,2.88 -3.24,2.88 z m 5.52,-2.04 c 0.24,-0.36 0.36,-0.6 0.36,-0.96 0,-0.48 -0.24,-0.96 -0.72,-1.2 -0.36,-0.24 -0.96,-0.48 -1.8,-0.48 -0.84,0 -1.56,0.24 -1.92,0.48 -0.48,0.36 -0.72,0.72 -0.72,1.2 0,0.72 0.24,1.32 0.84,1.8 h 3.12 c 0.48,-0.24 0.72,-0.6 0.84,-0.84 z" /><path
         inkscape:connector-curvature="0"
         id="path3264"
         style="fill:#231f20;fill-opacity:1;fill-rule:nonzero;stroke:none"
         d="m 597.72,249.36 c -0.12,-0.12 -0.12,-0.36 -0.12,-0.48 0,-0.72 0.36,-1.32 1.08,-1.8 h -0.84 V 246 h 6.6 v 1.08 h -4.68 c -0.36,0.24 -0.6,0.48 -0.72,0.72 -0.12,0.24 -0.24,0.6 -0.24,0.84 0,0.36 0,0.6 0.12,0.72 z" /><path
         inkscape:connector-curvature="0"
         id="path3266"
         style="fill:#231f20;fill-opacity:1;fill-rule:nonzero;stroke:none"
         d="m 603.12,254.04 c 0.12,-0.12 0.24,-0.24 0.36,-0.48 0,-0.12 0.12,-0.36 0.12,-0.48 0.12,-0.24 0.12,-0.48 0.12,-0.6 0,-0.48 -0.12,-0.84 -0.24,-1.08 -0.24,-0.24 -0.48,-0.36 -0.84,-0.36 -0.96,0 -1.44,0.84 -1.44,2.64 v 0.72 h 1.56 c 0.12,0 0.24,-0.12 0.36,-0.36 z m 1.32,0.36 v 1.2 h -4.32 c -0.48,0 -0.84,0 -1.2,-0.12 -0.36,-0.12 -0.6,-0.36 -0.84,-0.6 -0.12,-0.24 -0.24,-0.48 -0.36,-0.84 0,-0.36 -0.12,-0.72 -0.12,-1.08 0,-1.92 0.72,-2.88 2.16,-2.88 v 1.2 c -0.84,0 -1.2,0.48 -1.2,1.56 0,0.36 0,0.72 0.12,0.96 0.12,0.24 0.24,0.36 0.36,0.48 0.12,0.12 0.36,0.12 0.6,0.12 0.24,0 0.48,0 0.72,0 v -0.48 c 0,-2.76 0.84,-4.08 2.28,-4.08 0.36,0 0.6,0.12 0.84,0.24 0.24,0 0.48,0.24 0.6,0.48 0.24,0.12 0.36,0.36 0.36,0.72 0.12,0.24 0.24,0.48 0.24,0.84 0,0.96 -0.36,1.68 -0.84,2.28 z" /><path
         inkscape:connector-curvature="0"
         id="path3268"
         style="fill:#231f20;fill-opacity:1;fill-rule:nonzero;stroke:none"
         d="m 600.12,266.4 c -1.68,0 -2.52,-0.72 -2.52,-2.04 0,-0.12 0,-0.36 0.12,-0.48 0,-0.12 0,-0.24 0.12,-0.48 0.12,-0.12 0.24,-0.24 0.36,-0.48 0.12,-0.12 0.36,-0.36 0.6,-0.6 -0.72,-0.24 -1.2,-0.96 -1.2,-1.92 0,-0.6 0.36,-1.2 1.08,-1.8 h -0.84 v -1.2 h 6.6 v 1.2 h -4.8 c -0.72,0.48 -0.96,1.08 -0.96,1.68 0,0.12 0,0.36 0,0.48 0.12,0.12 0.12,0.24 0.24,0.36 0.12,0 0.36,0.12 0.48,0.12 0.24,0 0.48,0.12 0.72,0.12 h 4.32 v 1.08 h -4.8 c -0.72,0.6 -0.96,1.2 -0.96,1.8 0,0.12 0,0.24 0,0.48 0.12,0.12 0.12,0.12 0.24,0.24 0.12,0.12 0.36,0.12 0.48,0.24 0.24,0 0.48,0 0.72,0 h 4.32 v 1.2 z" /><path
         inkscape:connector-curvature="0"
         id="path3270"
         style="fill:#231f20;fill-opacity:1;fill-rule:nonzero;stroke:none"
         d="m 600.12,277.2 c -1.68,0 -2.52,-0.72 -2.52,-2.16 0,-0.12 0,-0.24 0.12,-0.36 0,-0.24 0,-0.36 0.12,-0.48 0.12,-0.12 0.24,-0.36 0.36,-0.48 0.12,-0.24 0.36,-0.48 0.6,-0.72 -0.72,-0.24 -1.2,-0.84 -1.2,-1.8 0,-0.72 0.36,-1.32 1.08,-1.92 h -0.84 v -1.2 h 6.6 v 1.2 h -4.8 c -0.72,0.6 -0.96,1.2 -0.96,1.68 0,0.24 0,0.36 0,0.48 0.12,0.12 0.12,0.24 0.24,0.36 0.12,0.12 0.36,0.12 0.48,0.24 0.24,0 0.48,0 0.72,0 h 4.32 v 1.2 h -4.8 c -0.72,0.48 -0.96,1.08 -0.96,1.68 0,0.24 0,0.36 0,0.48 0.12,0.12 0.12,0.24 0.24,0.36 0.12,0 0.36,0.12 0.48,0.12 0.24,0 0.48,0.12 0.72,0.12 h 4.32 v 1.2 z" /><path
         inkscape:connector-curvature="0"
         id="path3272"
         style="fill:#231f20;fill-opacity:1;fill-rule:nonzero;stroke:none"
         d="m 603.12,282.72 c 0.12,-0.12 0.24,-0.36 0.36,-0.48 0,-0.24 0.12,-0.36 0.12,-0.6 0.12,-0.12 0.12,-0.36 0.12,-0.6 0,-0.36 -0.12,-0.72 -0.24,-0.96 -0.24,-0.24 -0.48,-0.36 -0.84,-0.36 -0.96,0 -1.44,0.84 -1.44,2.52 v 0.84 h 1.56 c 0.12,-0.12 0.24,-0.24 0.36,-0.36 z m 1.32,0.36 v 1.2 h -4.32 c -0.48,0 -0.84,0 -1.2,-0.24 -0.36,-0.12 -0.6,-0.24 -0.84,-0.48 -0.12,-0.24 -0.24,-0.48 -0.36,-0.84 0,-0.36 -0.12,-0.72 -0.12,-1.2 0,-1.8 0.72,-2.76 2.16,-2.88 v 1.2 c -0.84,0 -1.2,0.6 -1.2,1.68 0,0.36 0,0.72 0.12,0.84 0.12,0.24 0.24,0.48 0.36,0.48 0.12,0.12 0.36,0.24 0.6,0.24 0.24,0 0.48,0 0.72,0 v -0.6 c 0,-2.64 0.84,-3.96 2.28,-3.96 0.36,0 0.6,0 0.84,0.12 0.24,0.12 0.48,0.24 0.6,0.48 0.24,0.24 0.36,0.48 0.36,0.72 0.12,0.24 0.24,0.6 0.24,0.96 0,0.84 -0.36,1.68 -0.84,2.28 z" /><path
         inkscape:connector-curvature="0"
         id="path3274"
         style="fill:#231f20;fill-opacity:1;fill-rule:nonzero;stroke:none"
         d="m 595.2,287.16 v -1.08 h 9.24 v 1.08 h -0.48 c 0.24,0.36 0.36,0.6 0.48,0.84 0.12,0.36 0.24,0.72 0.24,1.08 0,0.36 -0.12,0.72 -0.24,1.08 -0.24,0.36 -0.48,0.6 -0.72,0.84 -0.36,0.36 -0.72,0.48 -1.2,0.6 -0.36,0.24 -0.96,0.24 -1.44,0.24 -0.48,0 -0.96,0 -1.44,-0.12 -0.36,-0.12 -0.72,-0.36 -1.08,-0.6 -0.24,-0.24 -0.48,-0.48 -0.72,-0.84 -0.12,-0.36 -0.24,-0.72 -0.24,-1.2 0,-0.72 0.36,-1.32 0.96,-1.92 z m 4.56,0 c -0.84,0.6 -1.2,1.2 -1.2,1.92 0,0.48 0.24,0.84 0.6,1.08 0.48,0.36 1.08,0.48 1.92,0.48 0.84,0 1.56,-0.12 1.92,-0.48 0.48,-0.24 0.72,-0.72 0.72,-1.2 0,-0.6 -0.24,-1.2 -0.84,-1.8 z" /><path
         inkscape:connector-curvature="0"
         id="path3276"
         style="fill:#231f20;fill-opacity:1;fill-rule:nonzero;stroke:none"
         d="m 595.2,294.36 h 9.24 v -1.2 h -9.24 z" /><path
         inkscape:connector-curvature="0"
         id="path3278"
         style="fill:#231f20;fill-opacity:1;fill-rule:nonzero;stroke:none"
         d="m 604.44,300 c 0,0.36 -0.24,0.6 -0.36,0.84 -0.24,0.36 -0.36,0.48 -0.72,0.72 -0.24,0.12 -0.48,0.24 -0.84,0.24 v -1.2 c 0.12,0 0.36,0 0.48,-0.12 0.12,-0.12 0.24,-0.24 0.36,-0.48 0.12,-0.12 0.24,-0.24 0.24,-0.48 0.12,-0.12 0.12,-0.36 0.12,-0.6 0,-0.24 -0.12,-0.48 -0.12,-0.72 -0.12,-0.24 -0.24,-0.48 -0.48,-0.6 -0.12,-0.24 -0.36,-0.36 -0.72,-0.48 -0.24,-0.12 -0.6,-0.12 -0.96,-0.24 v 5.04 h -0.24 c -0.6,0 -1.08,0 -1.56,-0.24 -0.36,-0.12 -0.72,-0.36 -1.08,-0.6 -0.24,-0.24 -0.48,-0.6 -0.72,-0.96 -0.12,-0.36 -0.24,-0.84 -0.24,-1.32 0,-0.48 0.12,-0.84 0.24,-1.2 0.24,-0.48 0.48,-0.72 0.72,-1.08 0.36,-0.24 0.72,-0.48 1.08,-0.6 0.48,-0.12 0.96,-0.24 1.56,-0.24 0.48,0 0.96,0.12 1.44,0.24 0.36,0.12 0.72,0.36 1.08,0.72 0.24,0.24 0.48,0.6 0.72,0.96 0.12,0.48 0.24,0.84 0.24,1.32 0,0.36 -0.12,0.72 -0.24,1.08 z m -3.96,-3 c -0.36,0 -0.6,0.12 -0.84,0.24 -0.24,0.12 -0.48,0.24 -0.6,0.36 -0.12,0.12 -0.24,0.36 -0.36,0.6 -0.12,0.12 -0.12,0.36 -0.12,0.6 0,0.48 0.12,0.96 0.48,1.2 0.36,0.36 0.84,0.6 1.44,0.72 z" /><path
         inkscape:connector-curvature="0"
         id="path3280"
         style="fill:#231f20;fill-opacity:1;fill-rule:nonzero;stroke:none"
         d="m 620.52,251.4 v -4.44 h -8.16 v -1.2 h 9.24 v 5.64 z" /><path
         inkscape:connector-curvature="0"
         id="path3282"
         style="fill:#231f20;fill-opacity:1;fill-rule:nonzero;stroke:none"
         d="m 615,254.16 c 0.24,-0.36 0.48,-0.72 0.72,-0.96 0.24,-0.36 0.72,-0.48 1.08,-0.72 0.48,-0.12 0.96,-0.12 1.56,-0.12 0.48,0 0.96,0 1.44,0.12 0.36,0.24 0.84,0.48 1.08,0.72 0.24,0.24 0.48,0.6 0.72,0.96 0.12,0.36 0.24,0.84 0.24,1.32 0,0.48 -0.12,0.84 -0.24,1.2 -0.24,0.48 -0.48,0.72 -0.72,1.08 -0.36,0.24 -0.72,0.48 -1.08,0.6 -0.48,0.12 -0.96,0.24 -1.44,0.24 -0.6,0 -1.08,-0.12 -1.56,-0.24 -0.36,-0.12 -0.72,-0.36 -1.08,-0.6 -0.24,-0.36 -0.48,-0.6 -0.72,-1.08 -0.12,-0.36 -0.24,-0.72 -0.24,-1.2 0,-0.48 0.12,-0.96 0.24,-1.32 z m 5.76,0.48 c -0.12,-0.24 -0.36,-0.36 -0.6,-0.6 -0.12,-0.12 -0.48,-0.24 -0.72,-0.36 -0.36,-0.12 -0.72,-0.12 -1.08,-0.12 -0.48,0 -0.84,0 -1.2,0.12 -0.36,0.12 -0.6,0.24 -0.84,0.36 -0.12,0.24 -0.36,0.36 -0.48,0.6 0,0.24 -0.12,0.48 -0.12,0.84 0,0.24 0.12,0.48 0.12,0.72 0.12,0.24 0.36,0.48 0.48,0.6 0.24,0.12 0.48,0.36 0.84,0.36 0.36,0.12 0.72,0.12 1.2,0.12 0.36,0 0.72,0 1.08,-0.12 0.24,0 0.6,-0.24 0.72,-0.36 0.24,-0.12 0.48,-0.36 0.6,-0.6 0,-0.24 0.12,-0.48 0.12,-0.72 0,-0.36 -0.12,-0.6 -0.12,-0.84 z" /><path
         inkscape:connector-curvature="0"
         id="path3284"
         style="fill:#231f20;fill-opacity:1;fill-rule:nonzero;stroke:none"
         d="m 615,265.32 v -1.2 h 0.48 c -0.24,-0.24 -0.36,-0.48 -0.48,-0.84 -0.12,-0.24 -0.24,-0.6 -0.24,-0.96 0,-0.48 0.12,-0.84 0.24,-1.2 0.24,-0.24 0.48,-0.6 0.72,-0.84 0.36,-0.24 0.72,-0.48 1.2,-0.6 0.36,-0.12 0.84,-0.24 1.44,-0.24 0.48,0 0.96,0.12 1.44,0.24 0.36,0.12 0.72,0.24 1.08,0.48 0.24,0.24 0.48,0.48 0.72,0.84 0.12,0.36 0.24,0.84 0.24,1.2 0,0.72 -0.36,1.44 -0.96,1.92 h 0.24 c 0.48,0 0.84,0 1.2,-0.12 0.24,0 0.48,-0.12 0.6,-0.36 0.24,-0.12 0.36,-0.24 0.36,-0.48 0.12,-0.24 0.12,-0.48 0.12,-0.84 0,-0.96 -0.36,-1.44 -1.08,-1.44 v -1.2 c 0.36,0 0.6,0.12 0.84,0.24 0.24,0.12 0.48,0.24 0.6,0.48 0.24,0.24 0.36,0.48 0.48,0.84 0,0.36 0.12,0.72 0.12,1.2 0,1.92 -1.08,2.88 -3.24,2.88 z m 5.52,-2.04 c 0.24,-0.36 0.36,-0.6 0.36,-0.96 0,-0.48 -0.24,-0.96 -0.72,-1.2 -0.36,-0.24 -0.96,-0.48 -1.8,-0.48 -0.84,0 -1.56,0.24 -1.92,0.48 -0.48,0.36 -0.72,0.72 -0.72,1.2 0,0.72 0.24,1.32 0.84,1.8 h 3.12 c 0.48,-0.24 0.72,-0.6 0.84,-0.84 z" /><path
         inkscape:connector-curvature="0"
         id="path3286"
         style="fill:#231f20;fill-opacity:1;fill-rule:nonzero;stroke:none"
         d="m 615,268.2 v -1.08 h 6.6 v 1.08 z m -2.64,0 v -1.08 h 1.32 v 1.08 z" /><path
         inkscape:connector-curvature="0"
         id="path3288"
         style="fill:#231f20;fill-opacity:1;fill-rule:nonzero;stroke:none"
         d="m 621.72,273.72 c -0.12,0.24 -0.24,0.6 -0.48,0.84 -0.24,0.12 -0.36,0.36 -0.72,0.48 -0.24,0.24 -0.48,0.24 -0.84,0.36 v -1.2 c 0.12,0 0.36,-0.12 0.48,-0.12 0.12,-0.12 0.24,-0.24 0.36,-0.36 0.12,-0.12 0.24,-0.24 0.24,-0.48 0.12,-0.12 0.12,-0.36 0.12,-0.6 0,-0.24 -0.12,-0.48 -0.12,-0.72 -0.12,-0.24 -0.36,-0.48 -0.6,-0.6 -0.12,-0.12 -0.48,-0.24 -0.72,-0.36 -0.36,-0.12 -0.72,-0.12 -1.08,-0.12 -0.48,0 -0.84,0 -1.2,0.12 -0.36,0.12 -0.6,0.24 -0.84,0.36 -0.12,0.12 -0.36,0.36 -0.48,0.6 0,0.24 -0.12,0.48 -0.12,0.72 0,0.24 0,0.48 0.12,0.6 0,0.24 0.12,0.36 0.24,0.48 0.12,0.12 0.24,0.24 0.36,0.36 0.12,0 0.36,0.12 0.48,0.12 v 1.2 c -0.36,-0.12 -0.6,-0.12 -0.84,-0.36 -0.36,-0.12 -0.6,-0.24 -0.72,-0.48 -0.24,-0.24 -0.36,-0.6 -0.48,-0.84 0,-0.36 -0.12,-0.6 -0.12,-1.08 0,-0.36 0.12,-0.84 0.24,-1.2 0.24,-0.36 0.48,-0.72 0.72,-1.08 0.24,-0.24 0.72,-0.48 1.08,-0.6 0.48,-0.12 0.96,-0.24 1.56,-0.24 0.48,0 0.96,0.12 1.44,0.24 0.36,0.24 0.84,0.36 1.08,0.72 0.24,0.24 0.48,0.6 0.72,0.96 0.12,0.36 0.24,0.84 0.24,1.2 0,0.36 -0.12,0.72 -0.12,1.08 z" /><g
         transform="matrix(0.12,0,0,-0.12,0,612)"
         id="g3290"><path
           inkscape:connector-curvature="0"
           id="path3292"
           style="fill:none;stroke:#2e3092;stroke-width:18;stroke-linecap:butt;stroke-linejoin:miter;stroke-miterlimit:10;stroke-dasharray:none;stroke-opacity:1"
           d="m 4582,3548 h 111" /></g><path
         inkscape:connector-curvature="0"
         id="path3294"
         style="fill:#2e3092;fill-opacity:1;fill-rule:nonzero;stroke:none"
         d="m 550.32,190.2 v -8.04 l -3.96,4.08 z" /><path
         inkscape:connector-curvature="0"
         id="path3296"
         style="fill:#2e3092;fill-opacity:1;fill-rule:nonzero;stroke:none"
         d="m 562.2,183 5.64,3.24 -5.64,3.24 z" /><g
         transform="matrix(0.12,0,0,-0.12,0,612)"
         id="g3298"><path
           inkscape:connector-curvature="0"
           id="path3300"
           style="fill:none;stroke:#2e3092;stroke-width:18;stroke-linecap:butt;stroke-linejoin:miter;stroke-miterlimit:10;stroke-dasharray:none;stroke-opacity:1"
           d="m 4582,3427 h 111" /></g><path
         inkscape:connector-curvature="0"
         id="path3302"
         style="fill:#2e3092;fill-opacity:1;fill-rule:nonzero;stroke:none"
         d="m 550.32,204.72 v -8.04 l -3.96,4.08 z" /><path
         inkscape:connector-curvature="0"
         id="path3304"
         style="fill:#2e3092;fill-opacity:1;fill-rule:nonzero;stroke:none"
         d="m 562.2,197.4 5.64,3.36 -5.64,3.24 z" /><g
         transform="matrix(0.12,0,0,-0.12,0,612)"
         id="g3306"><path
           inkscape:connector-curvature="0"
           id="path3308"
           style="fill:none;stroke:#2e3092;stroke-width:18;stroke-linecap:butt;stroke-linejoin:miter;stroke-miterlimit:10;stroke-dasharray:none;stroke-opacity:1"
           d="m 4582,3289 h 111" /></g><path
         inkscape:connector-curvature="0"
         id="path3310"
         style="fill:#2e3092;fill-opacity:1;fill-rule:nonzero;stroke:none"
         d="m 550.32,221.28 v -8.04 l -3.96,4.08 z" /><path
         inkscape:connector-curvature="0"
         id="path3312"
         style="fill:#2e3092;fill-opacity:1;fill-rule:nonzero;stroke:none"
         d="m 562.2,213.96 5.64,3.36 -5.64,3.24 z" /><g
         transform="matrix(0.12,0,0,-0.12,0,612)"
         id="g3314"><path
           inkscape:connector-curvature="0"
           id="path3316"
           style="fill:none;stroke:#2e3092;stroke-width:18;stroke-linecap:butt;stroke-linejoin:miter;stroke-miterlimit:10;stroke-dasharray:none;stroke-opacity:1"
           d="m 4582,3144 h 111" /></g><path
         inkscape:connector-curvature="0"
         id="path3318"
         style="fill:#2e3092;fill-opacity:1;fill-rule:nonzero;stroke:none"
         d="m 550.32,238.8 v -8.04 l -3.96,3.96 z" /><path
         inkscape:connector-curvature="0"
         id="path3320"
         style="fill:#2e3092;fill-opacity:1;fill-rule:nonzero;stroke:none"
         d="m 562.2,231.48 5.64,3.36 -5.64,3.24 z" /><g
         transform="matrix(0.12,0,0,-0.12,0,612)"
         id="g3322"><path
           inkscape:connector-curvature="0"
           id="path3324"
           style="fill:none;stroke:#2e3092;stroke-width:18;stroke-linecap:butt;stroke-linejoin:miter;stroke-miterlimit:10;stroke-dasharray:none;stroke-opacity:1"
           d="M 4432,3006 V 2895" /></g><path
         inkscape:connector-curvature="0"
         id="path3326"
         style="fill:#2e3092;fill-opacity:1;fill-rule:nonzero;stroke:none"
         d="m 527.76,251.88 h 8.04 l -3.96,-4.08 z" /><path
         inkscape:connector-curvature="0"
         id="path3328"
         style="fill:#2e3092;fill-opacity:1;fill-rule:nonzero;stroke:none"
         d="m 535.08,263.64 -3.24,5.76 -3.36,-5.76 z" /><g
         transform="matrix(0.12,0,0,-0.12,0,612)"
         id="g3330"><path
           inkscape:connector-curvature="0"
           id="path3332"
           style="fill:none;stroke:#2e3092;stroke-width:18;stroke-linecap:butt;stroke-linejoin:miter;stroke-miterlimit:10;stroke-dasharray:none;stroke-opacity:1"
           d="M 3965,3006 V 2895" /></g><path
         inkscape:connector-curvature="0"
         id="path3334"
         style="fill:#2e3092;fill-opacity:1;fill-rule:nonzero;stroke:none"
         d="m 471.72,251.88 h 8.04 l -3.96,-4.08 z" /><path
         inkscape:connector-curvature="0"
         id="path3336"
         style="fill:#2e3092;fill-opacity:1;fill-rule:nonzero;stroke:none"
         d="m 479.04,263.64 -3.24,5.76 -3.36,-5.76 z" /><g
         transform="matrix(0.12,0,0,-0.12,0,612)"
         id="g3338"><path
           inkscape:connector-curvature="0"
           id="path3340"
           style="fill:none;stroke:#2e3092;stroke-width:18;stroke-linecap:butt;stroke-linejoin:miter;stroke-miterlimit:10;stroke-dasharray:none;stroke-opacity:1"
           d="M 4082,3006 V 2895" /></g><path
         inkscape:connector-curvature="0"
         id="path3342"
         style="fill:#2e3092;fill-opacity:1;fill-rule:nonzero;stroke:none"
         d="m 485.76,251.88 h 8.04 l -3.96,-4.08 z" /><path
         inkscape:connector-curvature="0"
         id="path3344"
         style="fill:#2e3092;fill-opacity:1;fill-rule:nonzero;stroke:none"
         d="m 493.08,263.64 -3.36,5.76 -3.24,-5.76 z" /><g
         transform="matrix(0.12,0,0,-0.12,0,612)"
         id="g3346"><path
           inkscape:connector-curvature="0"
           id="path3348"
           style="fill:none;stroke:#2e3092;stroke-width:18;stroke-linecap:butt;stroke-linejoin:miter;stroke-miterlimit:10;stroke-dasharray:none;stroke-opacity:1"
           d="M 4198,3006 V 2895" /></g><path
         inkscape:connector-curvature="0"
         id="path3350"
         style="fill:#2e3092;fill-opacity:1;fill-rule:nonzero;stroke:none"
         d="m 499.8,251.88 h 8.04 l -4.08,-4.08 z" /><path
         inkscape:connector-curvature="0"
         id="path3352"
         style="fill:#2e3092;fill-opacity:1;fill-rule:nonzero;stroke:none"
         d="m 507.12,263.64 -3.36,5.76 -3.24,-5.76 z" /><g
         transform="matrix(0.12,0,0,-0.12,0,612)"
         id="g3354"><path
           inkscape:connector-curvature="0"
           id="path3356"
           style="fill:none;stroke:#2e3092;stroke-width:18;stroke-linecap:butt;stroke-linejoin:miter;stroke-miterlimit:10;stroke-dasharray:none;stroke-opacity:1"
           d="M 4315,3006 V 2895" /></g><path
         inkscape:connector-curvature="0"
         id="path3358"
         style="fill:#2e3092;fill-opacity:1;fill-rule:nonzero;stroke:none"
         d="m 513.84,251.88 h 8.04 l -4.08,-4.08 z" /><path
         inkscape:connector-curvature="0"
         id="path3360"
         style="fill:#2e3092;fill-opacity:1;fill-rule:nonzero;stroke:none"
         d="m 521.04,263.64 -3.24,5.76 -3.24,-5.76 z" /><path
         inkscape:connector-curvature="0"
         id="path3362"
         style="fill:#ed1c24;fill-opacity:1;fill-rule:nonzero;stroke:none"
         d="m 470.04,273.36 c -0.96,15.84 22.32,4.56 30.72,7.08 2.04,0.6 3.24,2.16 3.96,4.08 0.12,0.48 3.6,-1.68 4.08,-1.92 1.68,-0.84 3.84,-0.96 5.64,-1.08 10.2,-0.6 21.48,5.4 27.36,-6.48 0.6,-1.2 0.48,0.84 0.24,1.2 -3.12,6.36 -7.92,8.88 -14.88,8.64 -7.92,-0.36 -16.2,-3.36 -22.8,2.52 -0.12,0.12 -0.24,-0.12 -0.24,-0.24 -3.72,-15.48 -36.12,9.24 -34.8,-12.84 0,-0.48 0.84,-2.28 0.72,-0.96 z" /><path
         inkscape:connector-curvature="0"
         id="path3364"
         style="fill:#ed1c24;fill-opacity:1;fill-rule:nonzero;stroke:none"
         d="m 568.2,243.12 c 19.68,1.08 -3.84,-28.32 12.36,-31.92 -0.24,0.6 -0.36,1.32 -0.6,2.04 -9.84,-10.44 5.16,-27.24 -10.56,-34.32 -0.48,-0.24 0.24,-2.28 0.6,-2.16 16.08,7.32 0.72,24 10.68,34.44 0.24,0.24 -0.12,1.92 -0.48,2.04 -13.68,3.12 8.52,33.12 -12.6,32.04 -0.36,0 0,-2.16 0.6,-2.16 z" /><path
         inkscape:connector-curvature="0"
         id="path3366"
         style="fill:#ed1c24;fill-opacity:1;fill-rule:nonzero;stroke:none"
         d="m 495.36,293.64 -3.72,1.32 3.72,1.32 z m -4.68,1.8 v -1.08 l 7.8,-3 v 1.08 l -2.4,0.84 v 3.36 l 2.4,0.84 v 1.2 z" /><path
         inkscape:connector-curvature="0"
         id="path3368"
         style="fill:#ed1c24;fill-opacity:1;fill-rule:nonzero;stroke:none"
         d="m 494.4,302.88 -3.72,2.76 v -1.32 l 2.88,-2.04 -2.88,-2.04 v -1.2 l 3.72,2.64 4.08,-3 V 300 l -3.24,2.28 3.24,2.28 v 1.32 z" /><path
         inkscape:connector-curvature="0"
         id="path3370"
         style="fill:#ed1c24;fill-opacity:1;fill-rule:nonzero;stroke:none"
         d="m 490.68,308.04 h 7.92 v -1.08 h -7.92 z" /><path
         inkscape:connector-curvature="0"
         id="path3372"
         style="fill:#ed1c24;fill-opacity:1;fill-rule:nonzero;stroke:none"
         d="m 505.2,293.4 h 7.92 v -1.08 h -7.92 z" /><path
         inkscape:connector-curvature="0"
         id="path3374"
         style="fill:#ed1c24;fill-opacity:1;fill-rule:nonzero;stroke:none"
         d="M 507.36,296.16 V 295.2 H 513 v 0.96 h -4.08 c -0.6,0.48 -0.84,1.08 -0.84,1.56 0,0.12 0,0.36 0,0.48 0.12,0.12 0.12,0.24 0.24,0.36 0.12,0 0.24,0.12 0.48,0.12 0.12,0 0.36,0.12 0.6,0.12 h 3.6 v 0.96 h -3.72 c -1.32,0 -2.04,-0.6 -2.04,-1.92 0,-0.24 0.12,-0.6 0.24,-0.84 0.12,-0.36 0.36,-0.6 0.6,-0.84 z" /><path
         inkscape:connector-curvature="0"
         id="path3376"
         style="fill:#ed1c24;fill-opacity:1;fill-rule:nonzero;stroke:none"
         d="m 512.28,303.36 c 0,0 0,-0.12 0,-0.24 0,0 0,-0.12 0,-0.24 0,0 0,-0.12 0,-0.24 0,0 -0.12,-0.12 -0.12,-0.12 -0.12,0 -0.12,-0.12 -0.24,-0.12 -0.12,0 -0.36,0 -0.48,0 h -3.24 v 0.84 h -0.84 v -0.84 h -1.44 v -1.08 h 1.44 v -0.72 h 0.84 v 0.72 h 3.12 c 0.36,0 0.6,0 0.84,0.12 0.12,0 0.36,0 0.48,0.12 0.12,0.12 0.24,0.24 0.36,0.48 0.12,0.12 0.12,0.36 0.12,0.6 0,0.24 0,0.36 0,0.48 0,0.12 -0.12,0.24 -0.12,0.24 z" /><path
         inkscape:connector-curvature="0"
         id="path3378"
         style="fill:#ed1c24;fill-opacity:1;fill-rule:nonzero;stroke:none"
         d="m 513,307.56 c 0,0.24 -0.12,0.48 -0.36,0.72 -0.12,0.24 -0.36,0.36 -0.48,0.48 -0.24,0.24 -0.48,0.24 -0.84,0.36 v -1.08 c 0.24,0 0.36,0 0.48,-0.12 0.12,-0.12 0.24,-0.24 0.24,-0.36 0.12,-0.12 0.24,-0.24 0.24,-0.48 0,-0.12 0.12,-0.24 0.12,-0.48 0,-0.24 -0.12,-0.36 -0.12,-0.6 -0.12,-0.24 -0.24,-0.36 -0.36,-0.48 -0.24,-0.24 -0.36,-0.36 -0.6,-0.36 -0.24,-0.12 -0.6,-0.24 -0.84,-0.24 v 4.32 h -0.24 c -0.48,0 -0.96,-0.12 -1.32,-0.24 -0.36,-0.12 -0.6,-0.36 -0.96,-0.48 -0.24,-0.24 -0.36,-0.6 -0.48,-0.84 -0.12,-0.36 -0.24,-0.72 -0.24,-1.2 0,-0.36 0.12,-0.72 0.24,-0.96 0.12,-0.36 0.24,-0.72 0.48,-0.96 0.36,-0.12 0.6,-0.36 0.96,-0.48 0.36,-0.12 0.84,-0.24 1.32,-0.24 0.36,0 0.84,0.12 1.2,0.24 0.36,0.12 0.72,0.36 0.96,0.6 0.24,0.24 0.36,0.48 0.6,0.84 0.12,0.36 0.12,0.72 0.12,1.08 0,0.36 0,0.6 -0.12,0.96 z m -3.36,-2.64 c -0.24,0.12 -0.48,0.12 -0.72,0.24 -0.24,0.12 -0.36,0.24 -0.48,0.36 -0.12,0.12 -0.24,0.24 -0.36,0.48 0,0.12 -0.12,0.36 -0.12,0.48 0,0.48 0.24,0.84 0.48,1.08 0.24,0.36 0.72,0.48 1.2,0.6 z" /><path
         inkscape:connector-curvature="0"
         id="path3380"
         style="fill:#ed1c24;fill-opacity:1;fill-rule:nonzero;stroke:none"
         d="m 507.24,313.2 c 0,-0.12 0,-0.24 0,-0.36 0,-0.6 0.24,-1.08 0.96,-1.56 h -0.84 v -0.96 H 513 v 0.96 h -3.96 c -0.24,0.24 -0.48,0.36 -0.6,0.6 -0.12,0.24 -0.24,0.48 -0.24,0.72 0,0.24 0,0.48 0.12,0.6 z" /><path
         inkscape:connector-curvature="0"
         id="path3382"
         style="fill:#ed1c24;fill-opacity:1;fill-rule:nonzero;stroke:none"
         d="m 508.2,316.2 h -0.84 v -1.08 h -0.48 c -0.36,0 -0.6,0 -0.72,0.12 -0.12,0.12 -0.24,0.36 -0.24,0.6 0,0.12 0,0.24 0,0.24 0.12,0.12 0.12,0.24 0.12,0.36 h -0.84 c -0.12,-0.12 -0.12,-0.24 -0.12,-0.36 0,-0.12 0,-0.24 0,-0.36 0,-1.08 0.6,-1.56 1.8,-1.56 h 0.48 v -0.84 h 0.84 v 0.84 h 4.8 v 0.96 h -4.8 z" /><path
         inkscape:connector-curvature="0"
         id="path3384"
         style="fill:#ed1c24;fill-opacity:1;fill-rule:nonzero;stroke:none"
         d="m 511.92,320.28 c 0.12,-0.24 0.12,-0.36 0.24,-0.48 0,-0.12 0.12,-0.24 0.12,-0.48 0,-0.12 0.12,-0.36 0.12,-0.48 0,-0.36 -0.12,-0.6 -0.24,-0.84 -0.24,-0.24 -0.36,-0.36 -0.72,-0.36 -0.72,0 -1.2,0.72 -1.2,2.16 v 0.72 h 1.32 c 0.12,-0.12 0.24,-0.12 0.36,-0.24 z m 1.08,0.24 v 1.08 h -3.6 c -0.48,0 -0.84,-0.12 -1.08,-0.24 -0.24,-0.12 -0.48,-0.24 -0.72,-0.48 -0.12,-0.12 -0.24,-0.36 -0.24,-0.72 -0.12,-0.24 -0.12,-0.6 -0.12,-0.96 0,-1.56 0.6,-2.28 1.8,-2.4 v 0.96 c -0.72,0.12 -1.08,0.6 -1.08,1.44 0,0.36 0.12,0.6 0.12,0.72 0.12,0.24 0.24,0.36 0.36,0.48 0.12,0 0.24,0.12 0.48,0.12 0.12,0 0.36,0 0.6,0 v -0.48 c 0,-2.28 0.72,-3.36 2.04,-3.36 0.24,0 0.48,0 0.6,0.12 0.24,0.12 0.36,0.24 0.6,0.36 0.12,0.24 0.24,0.36 0.24,0.6 0.12,0.24 0.12,0.48 0.12,0.84 0,0.72 -0.24,1.44 -0.72,1.92 z" /><path
         inkscape:connector-curvature="0"
         id="path3386"
         style="fill:#ed1c24;fill-opacity:1;fill-rule:nonzero;stroke:none"
         d="m 513,326.16 c 0,0.24 -0.12,0.48 -0.36,0.72 -0.12,0.12 -0.24,0.36 -0.48,0.48 -0.24,0.12 -0.48,0.24 -0.84,0.24 v -1.08 c 0.24,0 0.36,0 0.48,-0.12 0.12,0 0.24,-0.12 0.36,-0.24 0,-0.12 0.12,-0.24 0.12,-0.36 0,-0.12 0.12,-0.36 0.12,-0.48 0,-0.24 -0.12,-0.48 -0.12,-0.72 -0.12,-0.12 -0.24,-0.36 -0.48,-0.48 -0.12,-0.12 -0.36,-0.24 -0.72,-0.36 -0.24,0 -0.48,-0.12 -0.84,-0.12 -0.36,0 -0.72,0.12 -0.96,0.12 -0.36,0.12 -0.48,0.24 -0.72,0.36 -0.24,0.12 -0.36,0.36 -0.36,0.48 -0.12,0.24 -0.24,0.48 -0.24,0.72 0,0.12 0.12,0.36 0.12,0.48 0,0.12 0.12,0.24 0.24,0.36 0,0.12 0.12,0.24 0.24,0.24 0.24,0.12 0.36,0.12 0.48,0.12 v 1.08 c -0.24,0 -0.48,-0.12 -0.72,-0.24 -0.24,-0.12 -0.48,-0.36 -0.6,-0.48 -0.12,-0.24 -0.24,-0.48 -0.36,-0.72 -0.12,-0.24 -0.12,-0.48 -0.12,-0.84 0,-0.36 0.12,-0.72 0.24,-1.08 0.12,-0.36 0.24,-0.6 0.48,-0.84 0.24,-0.24 0.6,-0.48 0.96,-0.6 0.36,-0.12 0.84,-0.12 1.32,-0.12 0.48,0 0.84,0 1.2,0.12 0.36,0.24 0.72,0.36 0.96,0.6 0.24,0.24 0.36,0.48 0.6,0.84 0.12,0.36 0.12,0.72 0.12,1.08 0,0.24 0,0.6 -0.12,0.84 z" /><path
         inkscape:connector-curvature="0"
         id="path3388"
         style="fill:#ed1c24;fill-opacity:1;fill-rule:nonzero;stroke:none"
         d="m 513,331.8 c 0,0.24 -0.12,0.48 -0.36,0.72 -0.12,0.24 -0.36,0.36 -0.48,0.48 -0.24,0.24 -0.48,0.24 -0.84,0.36 v -1.08 c 0.24,0 0.36,0 0.48,-0.12 0.12,-0.12 0.24,-0.24 0.24,-0.36 0.12,-0.12 0.24,-0.24 0.24,-0.48 0,-0.12 0.12,-0.24 0.12,-0.48 0,-0.24 -0.12,-0.36 -0.12,-0.6 -0.12,-0.24 -0.24,-0.36 -0.36,-0.48 -0.24,-0.24 -0.36,-0.36 -0.6,-0.36 -0.24,-0.12 -0.6,-0.24 -0.84,-0.24 v 4.32 h -0.24 c -0.48,0 -0.96,-0.12 -1.32,-0.24 -0.36,-0.12 -0.6,-0.36 -0.96,-0.6 -0.24,-0.12 -0.36,-0.48 -0.48,-0.72 -0.12,-0.36 -0.24,-0.72 -0.24,-1.2 0,-0.36 0.12,-0.72 0.24,-0.96 0.12,-0.36 0.24,-0.72 0.48,-0.96 0.36,-0.12 0.6,-0.36 0.96,-0.48 0.36,-0.12 0.84,-0.24 1.32,-0.24 0.36,0 0.84,0.12 1.2,0.24 0.36,0.12 0.72,0.36 0.96,0.6 0.24,0.24 0.36,0.48 0.6,0.84 0.12,0.36 0.12,0.72 0.12,1.08 0,0.36 0,0.6 -0.12,0.96 z m -3.36,-2.64 c -0.24,0 -0.48,0.12 -0.72,0.24 -0.24,0.12 -0.36,0.24 -0.48,0.36 -0.12,0.12 -0.24,0.24 -0.36,0.48 0,0.12 -0.12,0.36 -0.12,0.48 0,0.48 0.24,0.84 0.48,1.08 0.24,0.24 0.72,0.48 1.2,0.6 z" /><path
         inkscape:connector-curvature="0"
         id="path3390"
         style="fill:#ed1c24;fill-opacity:1;fill-rule:nonzero;stroke:none"
         d="m 513,337.56 c -0.12,0.24 -0.24,0.48 -0.36,0.6 -0.12,0.24 -0.36,0.36 -0.6,0.48 -0.24,0.12 -0.48,0.24 -0.72,0.24 -0.24,0 -0.48,-0.12 -0.6,-0.12 -0.24,-0.12 -0.36,-0.24 -0.48,-0.48 -0.12,-0.12 -0.24,-0.36 -0.36,-0.6 -0.12,-0.24 -0.12,-0.48 -0.24,-0.84 -0.12,-0.36 -0.12,-0.72 -0.24,-0.84 0,-0.24 -0.12,-0.36 -0.12,-0.48 -0.12,-0.12 -0.12,-0.24 -0.24,-0.24 -0.12,0 -0.12,0 -0.24,0 -0.12,0 -0.24,0 -0.36,0.12 -0.12,0 -0.12,0.12 -0.24,0.24 0,0.12 -0.12,0.24 -0.12,0.36 0,0.12 -0.12,0.24 -0.12,0.48 0,0.72 0.36,1.08 0.84,1.2 v 0.96 c -1.08,0 -1.56,-0.84 -1.56,-2.28 0,-0.36 0,-0.6 0.12,-0.84 0.12,-0.24 0.24,-0.48 0.36,-0.72 0.12,-0.12 0.24,-0.24 0.48,-0.36 0.24,-0.12 0.48,-0.12 0.72,-0.12 0.24,0 0.48,0 0.6,0.12 0.12,0 0.36,0.12 0.48,0.24 0.12,0.24 0.12,0.36 0.24,0.6 0.12,0.24 0.24,0.6 0.24,0.96 0.12,0.24 0.24,0.6 0.24,0.84 0.12,0.12 0.12,0.36 0.24,0.48 0,0.12 0.12,0.12 0.12,0.24 0.12,0 0.24,0 0.36,0 0.12,0 0.24,0 0.36,0 0.12,-0.12 0.24,-0.24 0.36,-0.24 0,-0.12 0.12,-0.24 0.12,-0.48 0,-0.12 0.12,-0.36 0.12,-0.48 0,-0.96 -0.36,-1.44 -1.08,-1.44 v -1.08 c 1.2,0.12 1.8,0.96 1.8,2.52 0,0.36 0,0.6 -0.12,0.96 z" /><g
         transform="matrix(0.12,0,0,-0.12,0,612)"
         id="g3392"><path
           inkscape:connector-curvature="0"
           id="path3394"
           style="fill:none;stroke:#ed1c24;stroke-width:5;stroke-linecap:butt;stroke-linejoin:miter;stroke-miterlimit:10;stroke-dasharray:none;stroke-opacity:1"
           d="m 4516,2803 27,6" /></g><path
         inkscape:connector-curvature="0"
         id="path3396"
         style="fill:#ed1c24;fill-opacity:1;fill-rule:nonzero;stroke:none"
         d="m 549.72,273.48 4.8,-1.2 0.12,0.6 -4.8,1.08 z" /><g
         transform="matrix(0.12,0,0,-0.12,0,612)"
         id="g3398"><path
           inkscape:connector-curvature="0"
           id="path3400"
           style="fill:none;stroke:#ed1c24;stroke-width:5;stroke-linecap:butt;stroke-linejoin:miter;stroke-miterlimit:10;stroke-dasharray:none;stroke-opacity:1"
           d="m 4660,2838 27,6 6,27" /></g><path
         inkscape:connector-curvature="0"
         id="path3402"
         style="fill:#ed1c24;fill-opacity:1;fill-rule:nonzero;stroke:none"
         d="m 564.24,260.88 1.32,-6.6 0.6,0.12 -1.44,6.6 z" /><g
         transform="matrix(0.12,0,0,-0.12,0,612)"
         id="g3404"><path
           inkscape:connector-curvature="0"
           id="path3406"
           style="fill:none;stroke:#ed1c24;stroke-width:5;stroke-linecap:butt;stroke-linejoin:miter;stroke-miterlimit:10;stroke-dasharray:none;stroke-opacity:1"
           d="m 4727,3035 5,27" /></g><path
         inkscape:connector-curvature="0"
         id="path3408"
         style="fill:#231f20;fill-opacity:1;fill-rule:nonzero;stroke:none"
         d="m 556.92,402.84 v -5.64 l -6.72,5.52 h -1.56 v -7.32 h 1.68 v 4.92 l 6.72,-5.4 h 1.56 v 7.92 z" /><path
         inkscape:connector-curvature="0"
         id="path3410"
         style="fill:#231f20;fill-opacity:1;fill-rule:nonzero;stroke:none"
         d="m 551.4,410.4 v -1.92 l 4.56,-1.56 -4.56,-1.56 v -1.92 l 6.96,2.64 c 0.12,-0.12 0.36,-0.12 0.6,-0.24 0.12,-0.12 0.36,-0.24 0.48,-0.36 0.12,-0.12 0.24,-0.24 0.24,-0.24 0.12,-0.12 0.12,-0.24 0.12,-0.36 0,-0.12 0,-0.24 0,-0.36 0,-0.12 0,-0.24 -0.12,-0.48 h 1.68 c 0,0.12 0.12,0.36 0.12,0.48 0,0.24 0,0.36 0,0.6 0,0.36 0,0.6 -0.24,0.84 -0.12,0.36 -0.36,0.6 -0.6,0.72 -0.36,0.24 -0.6,0.36 -1.08,0.6 -0.36,0.12 -0.72,0.36 -1.2,0.48 z" /><path
         inkscape:connector-curvature="0"
         id="path3412"
         style="fill:#231f20;fill-opacity:1;fill-rule:nonzero;stroke:none"
         d="m 551.4,413.4 v -1.8 h 7.2 v 1.8 h -4.92 c -0.6,0.48 -0.84,0.96 -0.84,1.44 0,0.36 0,0.6 0.24,0.72 0.24,0.24 0.48,0.24 0.96,0.24 h 4.56 v 1.8 h -4.56 c -1.92,0 -2.76,-0.84 -2.76,-2.52 0,-0.6 0.12,-1.2 0.6,-1.68 z" /><path
         inkscape:connector-curvature="0"
         id="path3414"
         style="fill:#231f20;fill-opacity:1;fill-rule:nonzero;stroke:none"
         d="m 551.4,425.64 v -1.8 h 0.24 c -0.24,-0.48 -0.36,-0.96 -0.36,-1.56 0,-0.36 0,-0.84 0.24,-1.2 0.12,-0.36 0.36,-0.72 0.72,-0.96 0.36,-0.24 0.72,-0.48 1.2,-0.6 0.48,-0.24 0.96,-0.24 1.56,-0.24 0.6,0 1.08,0 1.56,0.12 0.48,0.12 0.84,0.36 1.2,0.6 0.36,0.24 0.6,0.6 0.72,0.96 0.24,0.36 0.24,0.84 0.24,1.32 0,0.6 -0.12,1.08 -0.48,1.56 h 3.12 v 1.8 z m 4.92,-1.8 c 0.6,-0.48 0.96,-0.96 0.96,-1.44 0,-0.48 -0.24,-0.72 -0.6,-0.96 -0.36,-0.24 -0.96,-0.36 -1.68,-0.36 -0.72,0 -1.32,0.12 -1.68,0.36 -0.36,0.24 -0.6,0.6 -0.6,0.96 0,0.48 0.24,0.96 0.72,1.44 z" /><g
         transform="matrix(0.12,0,0,-0.12,0,612)"
         id="g3416"><path
           inkscape:connector-curvature="0"
           id="path3418"
           style="fill:none;stroke:#231f20;stroke-width:9;stroke-linecap:butt;stroke-linejoin:miter;stroke-miterlimit:10;stroke-dasharray:none;stroke-opacity:1"
           d="m 4624,1880 v 295" /></g></g></g></svg>